<svg width="22" height="22" viewBox="0 0 22 22" fill="none" xmlns="http://www.w3.org/2000/svg">
<g clip-path="url(#clip0_274_51)">
<path d="M19.2145 0H5.96312C4.86574 0 3.97541 0.890327 3.97541 1.98771V3.97541H1.98771C0.890327 3.97541 0 4.86574 0 5.96312V19.2145C0 20.3119 0.890327 21.2022 1.98771 21.2022H15.2391C16.3365 21.2022 17.2268 20.3119 17.2268 19.2145V17.2268H19.2145C20.3119 17.2268 21.2022 16.3365 21.2022 15.2391V1.98771C21.2022 0.890327 20.3119 0 19.2145 0ZM15.2391 19.2145H1.98771V10.6011H15.2391V19.2145ZM19.2145 15.2391H17.2268V5.96312C17.2268 4.86574 16.3365 3.97541 15.2391 3.97541H5.96312V1.98771H19.2145V15.2391Z" fill="black"/>
</g>
<defs>
<clipPath id="clip0_274_51">
<rect width="21.2022" height="21.2022" fill="white"/>
</clipPath>
</defs>
</svg>
